Coordinates
nRows=265
nColumns=2
inDegrees=yes
endheader
time	ankle_angle_r	
3.02722	 18.768398	
3.06048	 18.731694	
3.09375	 18.712869	
3.12702	 18.710824	
3.16028	 18.714586	
3.19355	 18.719148	
3.22681	 18.725163	
3.26008	 18.731611	
3.29335	 18.733911	
3.32661	 18.729598	
3.35988	 18.721579	
3.39315	 18.713759	
3.42641	 18.709090	
3.45968	 18.708062	
3.49294	 18.704296	
3.52621	 18.690595	
3.55948	 18.669411	
3.59274	 18.649017	
3.62601	 18.635835	
3.65927	 18.632050	
3.69254	 18.632590	
3.72581	 18.630665	
3.75907	 18.625283	
3.79234	 18.616529	
3.8256	 18.605809	
3.85887	 18.598709	
3.89214	 18.596239	
3.9254	 18.595280	
3.95867	 18.596495	
3.99194	 18.599136	
4.0252	 18.598750	
4.05847	 18.593945	
4.09173	 18.586186	
4.125	 18.578644	
4.15827	 18.575887	
4.19153	 18.577878	
4.2248	 18.581358	
4.25806	 18.585697	
4.29133	 18.589732	
4.3246	 18.592261	
4.35786	 18.595791	
4.39113	 18.599668	
4.4244	 18.599541	
4.45766	 18.596889	
4.49093	 18.595720	
4.52419	 18.596695	
4.55746	 18.600727	
4.59073	 18.607516	
4.62399	 18.614212	
4.65726	 18.620057	
4.69052	 18.625449	
4.72379	 18.630844	
4.75706	 18.638004	
4.79032	 18.646498	
4.82359	 18.654240	
4.85685	 18.660614	
4.89012	 18.665260	
4.92339	 18.670146	
4.95665	 18.678464	
4.98992	 18.685874	
5.02319	 18.684026	
5.05645	 18.673350	
5.08972	 18.662130	
5.12298	 18.655911	
5.15625	 18.651938	
5.18952	 18.645288	
5.22278	 18.638588	
5.25605	 18.636451	
5.28931	 18.637046	
5.32258	 18.638320	
5.35585	 18.639657	
5.38911	 18.637292	
5.42238	 18.630880	
5.45565	 18.625707	
5.48891	 18.623876	
5.52218	 18.624493	
5.55544	 18.627148	
5.58871	 18.630104	
5.62198	 18.633131	
5.65524	 18.637347	
5.68851	 18.640816	
5.72177	 18.642915	
5.75504	 18.645092	
5.78831	 18.645605	
5.82157	 18.644273	
5.85484	 18.643293	
5.8881	 18.640498	
5.92137	 18.634917	
5.95464	 18.631321	
5.9879	 18.632878	
6.02117	 18.638605	
6.05444	 18.644483	
6.0877	 18.644966	
6.12097	 18.640501	
6.15423	 18.635966	
6.1875	 18.631073	
6.22077	 18.625655	
6.25403	 18.624970	
6.2873	 18.630814	
6.32056	 18.639813	
6.35383	 18.648428	
6.3871	 18.653016	
6.42036	 18.652353	
6.45363	 18.648843	
6.4869	 18.644668	
6.52016	 18.641644	
6.55343	 18.641024	
6.58669	 18.641579	
6.61996	 18.641268	
6.65323	 18.638731	
6.68649	 18.634290	
6.71976	 18.629273	
6.75302	 18.623436	
6.78629	 18.617423	
6.81956	 18.612600	
6.85282	 18.607611	
6.88609	 18.602787	
6.91935	 18.600394	
6.95262	 18.598414	
6.98589	 18.594466	
7.01915	 18.590919	
7.05242	 18.590267	
7.08569	 18.592865	
7.11895	 18.597826	
7.15222	 18.601076	
7.18548	 18.599629	
7.21875	 18.596267	
7.25202	 18.593772	
7.28528	 18.592421	
7.31855	 18.592206	
7.35181	 18.591431	
7.38508	 18.589897	
7.41835	 18.590822	
7.45161	 18.593426	
7.48488	 18.593814	
7.51815	 18.593431	
7.55141	 18.594626	
7.58468	 18.596246	
7.61794	 18.598855	
7.65121	 18.602581	
7.68448	 18.605963	
7.71774	 18.610421	
7.75101	 18.615400	
7.78427	 18.618221	
7.81754	 18.622000	
7.85081	 18.630337	
7.88407	 18.641203	
7.91734	 18.650380	
7.9506	 18.652846	
7.98387	 18.650334	
8.01714	 18.654690	
8.0504	 18.669075	
8.08367	 18.682860	
8.11694	 18.691454	
8.1502	 18.697965	
8.18347	 18.701655	
8.21673	 18.700676	
8.25	 18.695979	
8.28327	 18.690771	
8.31653	 18.689524	
8.3498	 18.693374	
8.38306	 18.700755	
8.41633	 18.709729	
8.4496	 18.716596	
8.48286	 18.720961	
8.51613	 18.726180	
8.5494	 18.731610	
8.58266	 18.735040	
8.61593	 18.736587	
8.64919	 18.735791	
8.68246	 18.733608	
8.71573	 18.731687	
8.74899	 18.728966	
8.78226	 18.727661	
8.81552	 18.730222	
8.84879	 18.730737	
8.88206	 18.726135	
8.91532	 18.722281	
8.94859	 18.722230	
8.98185	 18.724713	
9.01512	 18.728730	
9.04839	 18.732337	
9.08165	 18.733443	
9.11492	 18.731371	
9.14819	 18.728594	
9.18145	 18.730802	
9.21472	 18.738356	
9.24798	 18.743470	
9.28125	 18.742683	
9.31452	 18.741110	
9.34778	 18.741453	
9.38105	 18.739891	
9.41431	 18.730986	
9.44758	 18.712809	
9.48085	 18.692154	
9.51411	 18.678719	
9.54738	 18.672689	
9.58065	 18.668024	
9.61391	 18.661592	
9.64718	 18.653422	
9.68044	 18.646299	
9.71371	 18.642838	
9.74698	 18.641028	
9.78024	 18.639198	
9.81351	 18.638220	
9.84677	 18.636843	
9.88004	 18.635222	
9.91331	 18.635211	
9.94657	 18.634658	
9.97984	 18.633295	
10.0131	 18.634892	
10.0464	 18.638557	
10.0796	 18.640787	
10.1129	 18.641026	
10.1462	 18.639290	
10.1794	 18.635935	
10.2127	 18.631529	
10.246	 18.626711	
10.2792	 18.625832	
10.3125	 18.631787	
10.3458	 18.638368	
10.379	 18.638530	
10.4123	 18.634023	
10.4456	 18.631281	
10.4788	 18.633660	
10.5121	 18.640249	
10.5454	 18.648440	
10.5786	 18.652769	
10.6119	 18.649126	
10.6452	 18.644836	
10.6784	 18.649648	
10.7117	 18.659944	
10.745	 18.669752	
10.7782	 18.682206	
10.8115	 18.695332	
10.8448	 18.700804	
10.878	 18.700656	
10.9113	 18.701971	
10.9446	 18.704774	
10.9778	 18.706310	
11.0111	 18.704772	
11.0444	 18.701266	
11.0776	 18.701377	
11.1109	 18.707096	
11.1442	 18.712884	
11.1774	 18.713150	
11.2107	 18.706345	
11.244	 18.696308	
11.2772	 18.690598	
11.3105	 18.690895	
11.3437	 18.693802	
11.377	 18.697740	
11.4103	 18.698485	
11.4435	 18.692647	
11.4768	 18.686100	
11.5101	 18.685411	
11.5433	 18.689400	
11.5766	 18.693344	
11.6099	 18.694484	
11.6431	 18.692744	
11.6764	 18.685914	
11.7097	 18.669143	
11.7429	 18.646948	
11.7762	 18.636602	
11.8095	 18.644959	
